<svg xmlns="http://www.w3.org/2000/svg" xmlns:xlink="http://www.w3.org/1999/xlink" width="500" zoomAndPan="magnify" viewBox="0 0 375 374.999991" height="500" preserveAspectRatio="xMidYMid meet" version="1.0"><defs><g/><clipPath id="d05f9e01d1"><rect x="0" width="213" y="0" height="302"/></clipPath><clipPath id="aec864e95b"><path d="M 0.199219 16 L 35 16 L 35 51 L 0.199219 51 Z M 0.199219 16 " clip-rule="nonzero"/></clipPath><clipPath id="24caac6937"><path d="M 267 48 L 267.800781 48 L 267.800781 49 L 267 49 Z M 267 48 " clip-rule="nonzero"/></clipPath><clipPath id="7ea063e32a"><rect x="0" width="268" y="0" height="60"/></clipPath></defs><g transform="matrix(1, 0, 0, 1, 1, 0)"><g clip-path="url(#d05f9e01d1)"><g fill="#ff00ff" fill-opacity="1"><g transform="translate(-8.18565, 291.612798)"><g><path d="M 14.75 -171.09375 L 50.15625 -171.09375 L 50.15625 -35.40625 L 120.953125 -35.40625 L 120.953125 0 L 50.15625 0 L 50.15625 -35.40625 L 14.75 -35.40625 Z M 50.15625 -206.5 L 120.953125 -206.5 L 120.953125 -171.09375 L 156.34375 -171.09375 L 156.34375 -135.703125 L 120.953125 -135.703125 L 120.953125 -171.09375 L 50.15625 -171.09375 Z M 156.34375 -35.40625 L 120.953125 -35.40625 L 120.953125 -70.796875 L 156.34375 -70.796875 Z M 156.34375 -35.40625 "/></g></g></g><g fill="#00ffff" fill-opacity="1"><g transform="translate(21.155678, 298.928412)"><g><path d="M 14.75 -171.09375 L 50.15625 -171.09375 L 50.15625 -35.40625 L 120.953125 -35.40625 L 120.953125 0 L 50.15625 0 L 50.15625 -35.40625 L 14.75 -35.40625 Z M 50.15625 -206.5 L 120.953125 -206.5 L 120.953125 -171.09375 L 156.34375 -171.09375 L 156.34375 -135.703125 L 120.953125 -135.703125 L 120.953125 -171.09375 L 50.15625 -171.09375 Z M 156.34375 -35.40625 L 120.953125 -35.40625 L 120.953125 -70.796875 L 156.34375 -70.796875 Z M 156.34375 -35.40625 "/></g></g></g><g fill="#1800ad" fill-opacity="1"><g transform="translate(6.485017, 295.270605)"><g><path d="M 14.75 -171.09375 L 50.15625 -171.09375 L 50.15625 -35.40625 L 120.953125 -35.40625 L 120.953125 0 L 50.15625 0 L 50.15625 -35.40625 L 14.75 -35.40625 Z M 50.15625 -206.5 L 120.953125 -206.5 L 120.953125 -171.09375 L 156.34375 -171.09375 L 156.34375 -135.703125 L 120.953125 -135.703125 L 120.953125 -171.09375 L 50.15625 -171.09375 Z M 156.34375 -35.40625 L 120.953125 -35.40625 L 120.953125 -70.796875 L 156.34375 -70.796875 Z M 156.34375 -35.40625 "/></g></g></g></g></g><g transform="matrix(1, 0, 0, 1, 97, 159)"><g clip-path="url(#7ea063e32a)"><g fill="#ff00ff" fill-opacity="1"><g transform="translate(3.553008, 48.50801)"><g><path d="M 29.34375 0 L 29.34375 -23.96875 C 29.34375 -24.90625 29 -25.707031 28.3125 -26.375 C 27.632812 -27.050781 26.820312 -27.390625 25.875 -27.390625 L 8.75 -27.390625 L 8.75 -34.234375 L 25.875 -34.234375 C 27.757812 -34.234375 29.484375 -33.769531 31.046875 -32.84375 C 32.617188 -31.914062 33.867188 -30.675781 34.796875 -29.125 C 35.722656 -27.570312 36.1875 -25.851562 36.1875 -23.96875 L 36.1875 0 Z M 1.953125 0 L 1.953125 -27.390625 L 8.75 -27.390625 L 8.75 -17.125 L 25.921875 -17.125 L 25.921875 -10.265625 L 8.75 -10.265625 L 8.75 0 Z M 1.953125 0 "/></g></g></g><g fill="#ff00ff" fill-opacity="1"><g transform="translate(41.694554, 48.50801)"><g><path d="M 29.34375 -23.96875 C 29.34375 -24.90625 29.007812 -25.707031 28.34375 -26.375 C 27.675781 -27.050781 26.867188 -27.390625 25.921875 -27.390625 L 8.796875 -27.390625 L 8.796875 -34.234375 L 25.921875 -34.234375 C 27.804688 -34.234375 29.523438 -33.769531 31.078125 -32.84375 C 32.628906 -31.914062 33.867188 -30.675781 34.796875 -29.125 C 35.722656 -27.570312 36.1875 -25.851562 36.1875 -23.96875 Z M 29.34375 -6.84375 L 29.34375 -10.265625 C 29.34375 -11.210938 29.007812 -12.019531 28.34375 -12.6875 C 27.675781 -13.351562 26.867188 -13.6875 25.921875 -13.6875 L 12.234375 -13.6875 C 10.367188 -13.6875 8.65625 -14.148438 7.09375 -15.078125 C 5.53125 -16.015625 4.28125 -17.265625 3.34375 -18.828125 C 2.414062 -20.390625 1.953125 -22.101562 1.953125 -23.96875 L 1.953125 -27.390625 L 8.796875 -27.390625 L 8.796875 -23.96875 C 8.796875 -23.019531 9.140625 -22.210938 9.828125 -21.546875 C 10.515625 -20.878906 11.316406 -20.546875 12.234375 -20.546875 L 25.921875 -20.546875 C 27.804688 -20.546875 29.523438 -20.078125 31.078125 -19.140625 C 32.628906 -18.210938 33.867188 -16.972656 34.796875 -15.421875 C 35.722656 -13.878906 36.1875 -12.160156 36.1875 -10.265625 L 36.1875 -6.84375 Z M 12.234375 0 C 10.367188 0 8.65625 -0.460938 7.09375 -1.390625 C 5.53125 -2.316406 4.28125 -3.5625 3.34375 -5.125 C 2.414062 -6.695312 1.953125 -8.410156 1.953125 -10.265625 L 8.796875 -10.265625 C 8.796875 -9.328125 9.140625 -8.519531 9.828125 -7.84375 C 10.515625 -7.175781 11.316406 -6.84375 12.234375 -6.84375 L 29.34375 -6.84375 L 29.34375 0 Z M 12.234375 0 "/></g></g></g><g fill="#ff00ff" fill-opacity="1"><g transform="translate(79.8361, 48.50801)"><g><path d="M 1.953125 -17.125 L 1.953125 -34.234375 L 8.75 -34.234375 L 8.75 -17.125 Z M 29.390625 0 L 29.390625 -34.234375 L 36.1875 -34.234375 L 36.1875 0 Z M 1.953125 0 L 1.953125 -6.84375 C 1.953125 -8.738281 2.414062 -10.457031 3.34375 -12 C 4.28125 -13.550781 5.519531 -14.789062 7.0625 -15.71875 C 8.613281 -16.65625 10.335938 -17.125 12.234375 -17.125 L 25.921875 -17.125 L 25.921875 -10.265625 L 12.234375 -10.265625 C 11.285156 -10.265625 10.472656 -9.929688 9.796875 -9.265625 C 9.128906 -8.597656 8.796875 -7.789062 8.796875 -6.84375 L 8.796875 0 Z M 1.953125 0 "/></g></g></g><g fill="#ff00ff" fill-opacity="1"><g transform="translate(117.977648, 48.50801)"><g><path d="M 15.703125 0 L 15.703125 -23.96875 C 15.703125 -24.90625 15.359375 -25.707031 14.671875 -26.375 C 13.984375 -27.050781 13.171875 -27.390625 12.234375 -27.390625 L 1.953125 -27.390625 L 1.953125 -34.234375 L 12.234375 -34.234375 C 14.117188 -34.234375 15.832031 -33.769531 17.375 -32.84375 C 18.925781 -31.914062 20.164062 -30.675781 21.09375 -29.125 C 22.03125 -27.570312 22.5 -25.851562 22.5 -23.96875 L 22.5 0 Z M 22.5 -27.390625 L 22.5 -34.234375 L 36.1875 -34.234375 L 36.1875 -27.390625 Z M 22.5 -27.390625 "/></g></g></g><g fill="#ff00ff" fill-opacity="1"><g transform="translate(156.11919, 48.50801)"><g><path d="M 1.953125 -27.390625 L 1.953125 -34.234375 L 33.25 -34.234375 L 33.25 -27.390625 Z M 24.453125 0 C 22.597656 0 20.894531 -0.460938 19.34375 -1.390625 C 17.789062 -2.316406 16.550781 -3.5625 15.625 -5.125 C 14.695312 -6.695312 14.234375 -8.410156 14.234375 -10.265625 L 14.234375 -23.96875 L 21.03125 -23.96875 L 21.03125 -10.265625 C 21.03125 -9.328125 21.367188 -8.519531 22.046875 -7.84375 C 22.734375 -7.175781 23.535156 -6.84375 24.453125 -6.84375 L 33.25 -6.84375 L 33.25 0 Z M 1.953125 0 L 1.953125 -6.84375 L 14.1875 -6.84375 L 14.1875 0 Z M 1.953125 0 "/></g></g></g><g fill="#ff00ff" fill-opacity="1"><g transform="translate(191.326764, 48.50801)"><g><path d="M 1.953125 0 L 1.953125 -23.96875 C 1.953125 -25.851562 2.414062 -27.570312 3.34375 -29.125 C 4.28125 -30.675781 5.519531 -31.914062 7.0625 -32.84375 C 8.613281 -33.769531 10.335938 -34.234375 12.234375 -34.234375 L 36.1875 -34.234375 L 36.1875 -27.390625 L 12.234375 -27.390625 C 11.285156 -27.390625 10.472656 -27.050781 9.796875 -26.375 C 9.128906 -25.707031 8.796875 -24.90625 8.796875 -23.96875 L 8.796875 0 Z M 12.234375 -12.234375 L 12.234375 -19.078125 L 32.765625 -19.078125 L 32.765625 -12.234375 Z M 12.234375 -12.234375 "/></g></g></g><g fill="#ff00ff" fill-opacity="1"><g transform="translate(229.468306, 48.50801)"><g><path d="M 12.234375 -10.265625 C 10.335938 -10.265625 8.613281 -10.726562 7.0625 -11.65625 C 5.519531 -12.59375 4.28125 -13.832031 3.34375 -15.375 C 2.414062 -16.925781 1.953125 -18.648438 1.953125 -20.546875 L 1.953125 -34.234375 L 8.796875 -34.234375 L 8.796875 -20.546875 C 8.796875 -19.597656 9.128906 -18.789062 9.796875 -18.125 C 10.472656 -17.457031 11.285156 -17.125 12.234375 -17.125 L 25.921875 -17.125 L 25.921875 -10.265625 Z M 5.375 0 L 5.375 -6.84375 L 25.921875 -6.84375 C 26.867188 -6.84375 27.675781 -7.175781 28.34375 -7.84375 C 29.007812 -8.519531 29.34375 -9.328125 29.34375 -10.265625 L 29.34375 -34.234375 L 36.1875 -34.234375 L 36.1875 -10.265625 C 36.1875 -8.378906 35.722656 -6.660156 34.796875 -5.109375 C 33.867188 -3.554688 32.628906 -2.316406 31.078125 -1.390625 C 29.523438 -0.460938 27.804688 0 25.921875 0 Z M 5.375 0 "/></g></g></g><g clip-path="url(#aec864e95b)"><g fill="#00ffff" fill-opacity="1"><g transform="translate(-1.446738, 50.946565)"><g><path d="M 29.34375 0 L 29.34375 -23.96875 C 29.34375 -24.90625 29 -25.707031 28.3125 -26.375 C 27.632812 -27.050781 26.820312 -27.390625 25.875 -27.390625 L 8.75 -27.390625 L 8.75 -34.234375 L 25.875 -34.234375 C 27.757812 -34.234375 29.484375 -33.769531 31.046875 -32.84375 C 32.617188 -31.914062 33.867188 -30.675781 34.796875 -29.125 C 35.722656 -27.570312 36.1875 -25.851562 36.1875 -23.96875 L 36.1875 0 Z M 1.953125 0 L 1.953125 -27.390625 L 8.75 -27.390625 L 8.75 -17.125 L 25.921875 -17.125 L 25.921875 -10.265625 L 8.75 -10.265625 L 8.75 0 Z M 1.953125 0 "/></g></g></g></g><g fill="#00ffff" fill-opacity="1"><g transform="translate(36.694808, 50.946565)"><g><path d="M 29.34375 -23.96875 C 29.34375 -24.90625 29.007812 -25.707031 28.34375 -26.375 C 27.675781 -27.050781 26.867188 -27.390625 25.921875 -27.390625 L 8.796875 -27.390625 L 8.796875 -34.234375 L 25.921875 -34.234375 C 27.804688 -34.234375 29.523438 -33.769531 31.078125 -32.84375 C 32.628906 -31.914062 33.867188 -30.675781 34.796875 -29.125 C 35.722656 -27.570312 36.1875 -25.851562 36.1875 -23.96875 Z M 29.34375 -6.84375 L 29.34375 -10.265625 C 29.34375 -11.210938 29.007812 -12.019531 28.34375 -12.6875 C 27.675781 -13.351562 26.867188 -13.6875 25.921875 -13.6875 L 12.234375 -13.6875 C 10.367188 -13.6875 8.65625 -14.148438 7.09375 -15.078125 C 5.53125 -16.015625 4.28125 -17.265625 3.34375 -18.828125 C 2.414062 -20.390625 1.953125 -22.101562 1.953125 -23.96875 L 1.953125 -27.390625 L 8.796875 -27.390625 L 8.796875 -23.96875 C 8.796875 -23.019531 9.140625 -22.210938 9.828125 -21.546875 C 10.515625 -20.878906 11.316406 -20.546875 12.234375 -20.546875 L 25.921875 -20.546875 C 27.804688 -20.546875 29.523438 -20.078125 31.078125 -19.140625 C 32.628906 -18.210938 33.867188 -16.972656 34.796875 -15.421875 C 35.722656 -13.878906 36.1875 -12.160156 36.1875 -10.265625 L 36.1875 -6.84375 Z M 12.234375 0 C 10.367188 0 8.65625 -0.460938 7.09375 -1.390625 C 5.53125 -2.316406 4.28125 -3.5625 3.34375 -5.125 C 2.414062 -6.695312 1.953125 -8.410156 1.953125 -10.265625 L 8.796875 -10.265625 C 8.796875 -9.328125 9.140625 -8.519531 9.828125 -7.84375 C 10.515625 -7.175781 11.316406 -6.84375 12.234375 -6.84375 L 29.34375 -6.84375 L 29.34375 0 Z M 12.234375 0 "/></g></g></g><g fill="#00ffff" fill-opacity="1"><g transform="translate(74.836354, 50.946565)"><g><path d="M 1.953125 -17.125 L 1.953125 -34.234375 L 8.75 -34.234375 L 8.75 -17.125 Z M 29.390625 0 L 29.390625 -34.234375 L 36.1875 -34.234375 L 36.1875 0 Z M 1.953125 0 L 1.953125 -6.84375 C 1.953125 -8.738281 2.414062 -10.457031 3.34375 -12 C 4.28125 -13.550781 5.519531 -14.789062 7.0625 -15.71875 C 8.613281 -16.65625 10.335938 -17.125 12.234375 -17.125 L 25.921875 -17.125 L 25.921875 -10.265625 L 12.234375 -10.265625 C 11.285156 -10.265625 10.472656 -9.929688 9.796875 -9.265625 C 9.128906 -8.597656 8.796875 -7.789062 8.796875 -6.84375 L 8.796875 0 Z M 1.953125 0 "/></g></g></g><g fill="#00ffff" fill-opacity="1"><g transform="translate(112.977902, 50.946565)"><g><path d="M 15.703125 0 L 15.703125 -23.96875 C 15.703125 -24.90625 15.359375 -25.707031 14.671875 -26.375 C 13.984375 -27.050781 13.171875 -27.390625 12.234375 -27.390625 L 1.953125 -27.390625 L 1.953125 -34.234375 L 12.234375 -34.234375 C 14.117188 -34.234375 15.832031 -33.769531 17.375 -32.84375 C 18.925781 -31.914062 20.164062 -30.675781 21.09375 -29.125 C 22.03125 -27.570312 22.5 -25.851562 22.5 -23.96875 L 22.5 0 Z M 22.5 -27.390625 L 22.5 -34.234375 L 36.1875 -34.234375 L 36.1875 -27.390625 Z M 22.5 -27.390625 "/></g></g></g><g fill="#00ffff" fill-opacity="1"><g transform="translate(151.119444, 50.946565)"><g><path d="M 1.953125 -27.390625 L 1.953125 -34.234375 L 33.25 -34.234375 L 33.25 -27.390625 Z M 24.453125 0 C 22.597656 0 20.894531 -0.460938 19.34375 -1.390625 C 17.789062 -2.316406 16.550781 -3.5625 15.625 -5.125 C 14.695312 -6.695312 14.234375 -8.410156 14.234375 -10.265625 L 14.234375 -23.96875 L 21.03125 -23.96875 L 21.03125 -10.265625 C 21.03125 -9.328125 21.367188 -8.519531 22.046875 -7.84375 C 22.734375 -7.175781 23.535156 -6.84375 24.453125 -6.84375 L 33.25 -6.84375 L 33.25 0 Z M 1.953125 0 L 1.953125 -6.84375 L 14.1875 -6.84375 L 14.1875 0 Z M 1.953125 0 "/></g></g></g><g fill="#00ffff" fill-opacity="1"><g transform="translate(186.327018, 50.946565)"><g><path d="M 1.953125 0 L 1.953125 -23.96875 C 1.953125 -25.851562 2.414062 -27.570312 3.34375 -29.125 C 4.28125 -30.675781 5.519531 -31.914062 7.0625 -32.84375 C 8.613281 -33.769531 10.335938 -34.234375 12.234375 -34.234375 L 36.1875 -34.234375 L 36.1875 -27.390625 L 12.234375 -27.390625 C 11.285156 -27.390625 10.472656 -27.050781 9.796875 -26.375 C 9.128906 -25.707031 8.796875 -24.90625 8.796875 -23.96875 L 8.796875 0 Z M 12.234375 -12.234375 L 12.234375 -19.078125 L 32.765625 -19.078125 L 32.765625 -12.234375 Z M 12.234375 -12.234375 "/></g></g></g><g fill="#00ffff" fill-opacity="1"><g transform="translate(224.46856, 50.946565)"><g><path d="M 12.234375 -10.265625 C 10.335938 -10.265625 8.613281 -10.726562 7.0625 -11.65625 C 5.519531 -12.59375 4.28125 -13.832031 3.34375 -15.375 C 2.414062 -16.925781 1.953125 -18.648438 1.953125 -20.546875 L 1.953125 -34.234375 L 8.796875 -34.234375 L 8.796875 -20.546875 C 8.796875 -19.597656 9.128906 -18.789062 9.796875 -18.125 C 10.472656 -17.457031 11.285156 -17.125 12.234375 -17.125 L 25.921875 -17.125 L 25.921875 -10.265625 Z M 5.375 0 L 5.375 -6.84375 L 25.921875 -6.84375 C 26.867188 -6.84375 27.675781 -7.175781 28.34375 -7.84375 C 29.007812 -8.519531 29.34375 -9.328125 29.34375 -10.265625 L 29.34375 -34.234375 L 36.1875 -34.234375 L 36.1875 -10.265625 C 36.1875 -8.378906 35.722656 -6.660156 34.796875 -5.109375 C 33.867188 -3.554688 32.628906 -2.316406 31.078125 -1.390625 C 29.523438 -0.460938 27.804688 0 25.921875 0 Z M 5.375 0 "/></g></g></g><g clip-path="url(#24caac6937)"><g fill="#ff00ff" fill-opacity="1"><g transform="translate(267.610444, 48.50801)"><g/></g></g></g><g fill="#00ffff" fill-opacity="1"><g transform="translate(262.610699, 50.946565)"><g/></g></g><g fill="#1800ad" fill-opacity="1"><g transform="translate(1.053135, 49.727287)"><g><path d="M 29.34375 0 L 29.34375 -23.96875 C 29.34375 -24.90625 29 -25.707031 28.3125 -26.375 C 27.632812 -27.050781 26.820312 -27.390625 25.875 -27.390625 L 8.75 -27.390625 L 8.75 -34.234375 L 25.875 -34.234375 C 27.757812 -34.234375 29.484375 -33.769531 31.046875 -32.84375 C 32.617188 -31.914062 33.867188 -30.675781 34.796875 -29.125 C 35.722656 -27.570312 36.1875 -25.851562 36.1875 -23.96875 L 36.1875 0 Z M 1.953125 0 L 1.953125 -27.390625 L 8.75 -27.390625 L 8.75 -17.125 L 25.921875 -17.125 L 25.921875 -10.265625 L 8.75 -10.265625 L 8.75 0 Z M 1.953125 0 "/></g></g></g><g fill="#1800ad" fill-opacity="1"><g transform="translate(39.194681, 49.727287)"><g><path d="M 29.34375 -23.96875 C 29.34375 -24.90625 29.007812 -25.707031 28.34375 -26.375 C 27.675781 -27.050781 26.867188 -27.390625 25.921875 -27.390625 L 8.796875 -27.390625 L 8.796875 -34.234375 L 25.921875 -34.234375 C 27.804688 -34.234375 29.523438 -33.769531 31.078125 -32.84375 C 32.628906 -31.914062 33.867188 -30.675781 34.796875 -29.125 C 35.722656 -27.570312 36.1875 -25.851562 36.1875 -23.96875 Z M 29.34375 -6.84375 L 29.34375 -10.265625 C 29.34375 -11.210938 29.007812 -12.019531 28.34375 -12.6875 C 27.675781 -13.351562 26.867188 -13.6875 25.921875 -13.6875 L 12.234375 -13.6875 C 10.367188 -13.6875 8.65625 -14.148438 7.09375 -15.078125 C 5.53125 -16.015625 4.28125 -17.265625 3.34375 -18.828125 C 2.414062 -20.390625 1.953125 -22.101562 1.953125 -23.96875 L 1.953125 -27.390625 L 8.796875 -27.390625 L 8.796875 -23.96875 C 8.796875 -23.019531 9.140625 -22.210938 9.828125 -21.546875 C 10.515625 -20.878906 11.316406 -20.546875 12.234375 -20.546875 L 25.921875 -20.546875 C 27.804688 -20.546875 29.523438 -20.078125 31.078125 -19.140625 C 32.628906 -18.210938 33.867188 -16.972656 34.796875 -15.421875 C 35.722656 -13.878906 36.1875 -12.160156 36.1875 -10.265625 L 36.1875 -6.84375 Z M 12.234375 0 C 10.367188 0 8.65625 -0.460938 7.09375 -1.390625 C 5.53125 -2.316406 4.28125 -3.5625 3.34375 -5.125 C 2.414062 -6.695312 1.953125 -8.410156 1.953125 -10.265625 L 8.796875 -10.265625 C 8.796875 -9.328125 9.140625 -8.519531 9.828125 -7.84375 C 10.515625 -7.175781 11.316406 -6.84375 12.234375 -6.84375 L 29.34375 -6.84375 L 29.34375 0 Z M 12.234375 0 "/></g></g></g><g fill="#1800ad" fill-opacity="1"><g transform="translate(77.336227, 49.727287)"><g><path d="M 1.953125 -17.125 L 1.953125 -34.234375 L 8.75 -34.234375 L 8.75 -17.125 Z M 29.390625 0 L 29.390625 -34.234375 L 36.1875 -34.234375 L 36.1875 0 Z M 1.953125 0 L 1.953125 -6.84375 C 1.953125 -8.738281 2.414062 -10.457031 3.34375 -12 C 4.28125 -13.550781 5.519531 -14.789062 7.0625 -15.71875 C 8.613281 -16.65625 10.335938 -17.125 12.234375 -17.125 L 25.921875 -17.125 L 25.921875 -10.265625 L 12.234375 -10.265625 C 11.285156 -10.265625 10.472656 -9.929688 9.796875 -9.265625 C 9.128906 -8.597656 8.796875 -7.789062 8.796875 -6.84375 L 8.796875 0 Z M 1.953125 0 "/></g></g></g><g fill="#1800ad" fill-opacity="1"><g transform="translate(115.477775, 49.727287)"><g><path d="M 15.703125 0 L 15.703125 -23.96875 C 15.703125 -24.90625 15.359375 -25.707031 14.671875 -26.375 C 13.984375 -27.050781 13.171875 -27.390625 12.234375 -27.390625 L 1.953125 -27.390625 L 1.953125 -34.234375 L 12.234375 -34.234375 C 14.117188 -34.234375 15.832031 -33.769531 17.375 -32.84375 C 18.925781 -31.914062 20.164062 -30.675781 21.09375 -29.125 C 22.03125 -27.570312 22.5 -25.851562 22.5 -23.96875 L 22.5 0 Z M 22.5 -27.390625 L 22.5 -34.234375 L 36.1875 -34.234375 L 36.1875 -27.390625 Z M 22.5 -27.390625 "/></g></g></g><g fill="#1800ad" fill-opacity="1"><g transform="translate(153.619317, 49.727287)"><g><path d="M 1.953125 -27.390625 L 1.953125 -34.234375 L 33.25 -34.234375 L 33.25 -27.390625 Z M 24.453125 0 C 22.597656 0 20.894531 -0.460938 19.34375 -1.390625 C 17.789062 -2.316406 16.550781 -3.5625 15.625 -5.125 C 14.695312 -6.695312 14.234375 -8.410156 14.234375 -10.265625 L 14.234375 -23.96875 L 21.03125 -23.96875 L 21.03125 -10.265625 C 21.03125 -9.328125 21.367188 -8.519531 22.046875 -7.84375 C 22.734375 -7.175781 23.535156 -6.84375 24.453125 -6.84375 L 33.25 -6.84375 L 33.25 0 Z M 1.953125 0 L 1.953125 -6.84375 L 14.1875 -6.84375 L 14.1875 0 Z M 1.953125 0 "/></g></g></g><g fill="#1800ad" fill-opacity="1"><g transform="translate(188.826891, 49.727287)"><g><path d="M 1.953125 0 L 1.953125 -23.96875 C 1.953125 -25.851562 2.414062 -27.570312 3.34375 -29.125 C 4.28125 -30.675781 5.519531 -31.914062 7.0625 -32.84375 C 8.613281 -33.769531 10.335938 -34.234375 12.234375 -34.234375 L 36.1875 -34.234375 L 36.1875 -27.390625 L 12.234375 -27.390625 C 11.285156 -27.390625 10.472656 -27.050781 9.796875 -26.375 C 9.128906 -25.707031 8.796875 -24.90625 8.796875 -23.96875 L 8.796875 0 Z M 12.234375 -12.234375 L 12.234375 -19.078125 L 32.765625 -19.078125 L 32.765625 -12.234375 Z M 12.234375 -12.234375 "/></g></g></g><g fill="#1800ad" fill-opacity="1"><g transform="translate(226.968433, 49.727287)"><g><path d="M 12.234375 -10.265625 C 10.335938 -10.265625 8.613281 -10.726562 7.0625 -11.65625 C 5.519531 -12.59375 4.28125 -13.832031 3.34375 -15.375 C 2.414062 -16.925781 1.953125 -18.648438 1.953125 -20.546875 L 1.953125 -34.234375 L 8.796875 -34.234375 L 8.796875 -20.546875 C 8.796875 -19.597656 9.128906 -18.789062 9.796875 -18.125 C 10.472656 -17.457031 11.285156 -17.125 12.234375 -17.125 L 25.921875 -17.125 L 25.921875 -10.265625 Z M 5.375 0 L 5.375 -6.84375 L 25.921875 -6.84375 C 26.867188 -6.84375 27.675781 -7.175781 28.34375 -7.84375 C 29.007812 -8.519531 29.34375 -9.328125 29.34375 -10.265625 L 29.34375 -34.234375 L 36.1875 -34.234375 L 36.1875 -10.265625 C 36.1875 -8.378906 35.722656 -6.660156 34.796875 -5.109375 C 33.867188 -3.554688 32.628906 -2.316406 31.078125 -1.390625 C 29.523438 -0.460938 27.804688 0 25.921875 0 Z M 5.375 0 "/></g></g></g><g fill="#1800ad" fill-opacity="1"><g transform="translate(265.110572, 49.727287)"><g/></g></g></g></g></svg>