<svg xmlns="http://www.w3.org/2000/svg" xmlns:xlink="http://www.w3.org/1999/xlink" width="500" zoomAndPan="magnify" viewBox="0 0 375 194.87999" height="250" preserveAspectRatio="xMidYMid meet" version="1.0"><defs><g/><clipPath id="2ddf82b36f"><rect x="0" width="107" y="0" height="155"/></clipPath><clipPath id="d6c7917fa5"><path d="M 0.628906 8 L 19 8 L 19 27 L 0.628906 27 Z M 0.628906 8 " clip-rule="nonzero"/></clipPath><clipPath id="236812a727"><rect x="0" width="136" y="0" height="31"/></clipPath></defs><g transform="matrix(1, 0, 0, 1, 93, 0)"><g clip-path="url(#2ddf82b36f)"><g fill="#ff00ff" fill-opacity="1"><g transform="translate(-3.749901, 149.111721)"><g><path d="M 7.40625 -85.9375 L 25.1875 -85.9375 L 25.1875 -17.78125 L 60.75 -17.78125 L 60.75 0 L 25.1875 0 L 25.1875 -17.78125 L 7.40625 -17.78125 Z M 25.1875 -103.703125 L 60.75 -103.703125 L 60.75 -85.9375 L 78.515625 -85.9375 L 78.515625 -68.15625 L 60.75 -68.15625 L 60.75 -85.9375 L 25.1875 -85.9375 Z M 78.515625 -17.78125 L 60.75 -17.78125 L 60.75 -35.5625 L 78.515625 -35.5625 Z M 78.515625 -17.78125 "/></g></g></g><g fill="#00ffff" fill-opacity="1"><g transform="translate(10.985501, 152.785668)"><g><path d="M 7.40625 -85.9375 L 25.1875 -85.9375 L 25.1875 -17.78125 L 60.75 -17.78125 L 60.75 0 L 25.1875 0 L 25.1875 -17.78125 L 7.40625 -17.78125 Z M 25.1875 -103.703125 L 60.75 -103.703125 L 60.75 -85.9375 L 78.515625 -85.9375 L 78.515625 -68.15625 L 60.75 -68.15625 L 60.75 -85.9375 L 25.1875 -85.9375 Z M 78.515625 -17.78125 L 60.75 -17.78125 L 60.75 -35.5625 L 78.515625 -35.5625 Z M 78.515625 -17.78125 "/></g></g></g><g fill="#1800ad" fill-opacity="1"><g transform="translate(3.617798, 150.948694)"><g><path d="M 7.40625 -85.9375 L 25.1875 -85.9375 L 25.1875 -17.78125 L 60.75 -17.78125 L 60.75 0 L 25.1875 0 L 25.1875 -17.78125 L 7.40625 -17.78125 Z M 25.1875 -103.703125 L 60.75 -103.703125 L 60.75 -85.9375 L 78.515625 -85.9375 L 78.515625 -68.15625 L 60.75 -68.15625 L 60.75 -85.9375 L 25.1875 -85.9375 Z M 78.515625 -17.78125 L 60.75 -17.78125 L 60.75 -35.5625 L 78.515625 -35.5625 Z M 78.515625 -17.78125 "/></g></g></g></g></g><g transform="matrix(1, 0, 0, 1, 141, 82)"><g clip-path="url(#236812a727)"><g fill="#ff00ff" fill-opacity="1"><g transform="translate(2.357127, 24.873792)"><g><path d="M 14.734375 0 L 14.734375 -12.03125 C 14.734375 -12.507812 14.5625 -12.914062 14.21875 -13.25 C 13.875 -13.582031 13.46875 -13.75 13 -13.75 L 4.390625 -13.75 L 4.390625 -17.1875 L 13 -17.1875 C 13.945312 -17.1875 14.8125 -16.953125 15.59375 -16.484375 C 16.382812 -16.023438 17.007812 -15.40625 17.46875 -14.625 C 17.9375 -13.84375 18.171875 -12.976562 18.171875 -12.03125 L 18.171875 0 Z M 0.984375 0 L 0.984375 -13.75 L 4.390625 -13.75 L 4.390625 -8.59375 L 13.015625 -8.59375 L 13.015625 -5.15625 L 4.390625 -5.15625 L 4.390625 0 Z M 0.984375 0 "/></g></g></g><g fill="#ff00ff" fill-opacity="1"><g transform="translate(21.51205, 24.873792)"><g><path d="M 14.734375 -12.03125 C 14.734375 -12.507812 14.566406 -12.914062 14.234375 -13.25 C 13.898438 -13.582031 13.492188 -13.75 13.015625 -13.75 L 4.421875 -13.75 L 4.421875 -17.1875 L 13.015625 -17.1875 C 13.960938 -17.1875 14.828125 -16.953125 15.609375 -16.484375 C 16.390625 -16.023438 17.007812 -15.40625 17.46875 -14.625 C 17.9375 -13.84375 18.171875 -12.976562 18.171875 -12.03125 Z M 14.734375 -3.4375 L 14.734375 -5.15625 C 14.734375 -5.632812 14.566406 -6.039062 14.234375 -6.375 C 13.898438 -6.707031 13.492188 -6.875 13.015625 -6.875 L 6.140625 -6.875 C 5.203125 -6.875 4.335938 -7.109375 3.546875 -7.578125 C 2.765625 -8.046875 2.140625 -8.671875 1.671875 -9.453125 C 1.210938 -10.242188 0.984375 -11.101562 0.984375 -12.03125 L 0.984375 -13.75 L 4.421875 -13.75 L 4.421875 -12.03125 C 4.421875 -11.5625 4.59375 -11.15625 4.9375 -10.8125 C 5.28125 -10.476562 5.679688 -10.3125 6.140625 -10.3125 L 13.015625 -10.3125 C 13.960938 -10.3125 14.828125 -10.078125 15.609375 -9.609375 C 16.390625 -9.148438 17.007812 -8.53125 17.46875 -7.75 C 17.9375 -6.96875 18.171875 -6.101562 18.171875 -5.15625 L 18.171875 -3.4375 Z M 6.140625 0 C 5.203125 0 4.335938 -0.234375 3.546875 -0.703125 C 2.765625 -1.171875 2.140625 -1.796875 1.671875 -2.578125 C 1.210938 -3.367188 0.984375 -4.226562 0.984375 -5.15625 L 4.421875 -5.15625 C 4.421875 -4.6875 4.59375 -4.28125 4.9375 -3.9375 C 5.28125 -3.601562 5.679688 -3.4375 6.140625 -3.4375 L 14.734375 -3.4375 L 14.734375 0 Z M 6.140625 0 "/></g></g></g><g fill="#ff00ff" fill-opacity="1"><g transform="translate(40.666973, 24.873792)"><g><path d="M 0.984375 -8.59375 L 0.984375 -17.1875 L 4.390625 -17.1875 L 4.390625 -8.59375 Z M 14.765625 0 L 14.765625 -17.1875 L 18.171875 -17.1875 L 18.171875 0 Z M 0.984375 0 L 0.984375 -3.4375 C 0.984375 -4.382812 1.210938 -5.25 1.671875 -6.03125 C 2.140625 -6.8125 2.765625 -7.429688 3.546875 -7.890625 C 4.328125 -8.359375 5.191406 -8.59375 6.140625 -8.59375 L 13.015625 -8.59375 L 13.015625 -5.15625 L 6.140625 -5.15625 C 5.660156 -5.15625 5.253906 -4.988281 4.921875 -4.65625 C 4.585938 -4.320312 4.421875 -3.914062 4.421875 -3.4375 L 4.421875 0 Z M 0.984375 0 "/></g></g></g><g fill="#ff00ff" fill-opacity="1"><g transform="translate(59.821898, 24.873792)"><g><path d="M 7.890625 0 L 7.890625 -12.03125 C 7.890625 -12.507812 7.71875 -12.914062 7.375 -13.25 C 7.03125 -13.582031 6.617188 -13.75 6.140625 -13.75 L 0.984375 -13.75 L 0.984375 -17.1875 L 6.140625 -17.1875 C 7.085938 -17.1875 7.953125 -16.953125 8.734375 -16.484375 C 9.515625 -16.023438 10.132812 -15.40625 10.59375 -14.625 C 11.0625 -13.84375 11.296875 -12.976562 11.296875 -12.03125 L 11.296875 0 Z M 11.296875 -13.75 L 11.296875 -17.1875 L 18.171875 -17.1875 L 18.171875 -13.75 Z M 11.296875 -13.75 "/></g></g></g><g fill="#ff00ff" fill-opacity="1"><g transform="translate(78.976819, 24.873792)"><g><path d="M 0.984375 -13.75 L 0.984375 -17.1875 L 16.703125 -17.1875 L 16.703125 -13.75 Z M 12.28125 0 C 11.34375 0 10.484375 -0.234375 9.703125 -0.703125 C 8.929688 -1.171875 8.3125 -1.796875 7.84375 -2.578125 C 7.375 -3.367188 7.140625 -4.226562 7.140625 -5.15625 L 7.140625 -12.03125 L 10.5625 -12.03125 L 10.5625 -5.15625 C 10.5625 -4.6875 10.734375 -4.28125 11.078125 -3.9375 C 11.421875 -3.601562 11.820312 -3.4375 12.28125 -3.4375 L 16.703125 -3.4375 L 16.703125 0 Z M 0.984375 0 L 0.984375 -3.4375 L 7.125 -3.4375 L 7.125 0 Z M 0.984375 0 "/></g></g></g><g fill="#ff00ff" fill-opacity="1"><g transform="translate(96.658283, 24.873792)"><g><path d="M 0.984375 0 L 0.984375 -12.03125 C 0.984375 -12.976562 1.210938 -13.84375 1.671875 -14.625 C 2.140625 -15.40625 2.765625 -16.023438 3.546875 -16.484375 C 4.328125 -16.953125 5.191406 -17.1875 6.140625 -17.1875 L 18.171875 -17.1875 L 18.171875 -13.75 L 6.140625 -13.75 C 5.660156 -13.75 5.253906 -13.582031 4.921875 -13.25 C 4.585938 -12.914062 4.421875 -12.507812 4.421875 -12.03125 L 4.421875 0 Z M 6.140625 -6.140625 L 6.140625 -9.578125 L 16.453125 -9.578125 L 16.453125 -6.140625 Z M 6.140625 -6.140625 "/></g></g></g><g fill="#ff00ff" fill-opacity="1"><g transform="translate(115.813204, 24.873792)"><g><path d="M 6.140625 -5.15625 C 5.191406 -5.15625 4.328125 -5.390625 3.546875 -5.859375 C 2.765625 -6.328125 2.140625 -6.945312 1.671875 -7.71875 C 1.210938 -8.5 0.984375 -9.363281 0.984375 -10.3125 L 0.984375 -17.1875 L 4.421875 -17.1875 L 4.421875 -10.3125 C 4.421875 -9.84375 4.585938 -9.4375 4.921875 -9.09375 C 5.253906 -8.757812 5.660156 -8.59375 6.140625 -8.59375 L 13.015625 -8.59375 L 13.015625 -5.15625 Z M 2.703125 0 L 2.703125 -3.4375 L 13.015625 -3.4375 C 13.492188 -3.4375 13.898438 -3.601562 14.234375 -3.9375 C 14.566406 -4.28125 14.734375 -4.6875 14.734375 -5.15625 L 14.734375 -17.1875 L 18.171875 -17.1875 L 18.171875 -5.15625 C 18.171875 -4.207031 17.9375 -3.34375 17.46875 -2.5625 C 17.007812 -1.789062 16.390625 -1.171875 15.609375 -0.703125 C 14.828125 -0.234375 13.960938 0 13.015625 0 Z M 2.703125 0 "/></g></g></g><g clip-path="url(#d6c7917fa5)"><g fill="#00ffff" fill-opacity="1"><g transform="translate(-0.153768, 26.098438)"><g><path d="M 14.734375 0 L 14.734375 -12.03125 C 14.734375 -12.507812 14.5625 -12.914062 14.21875 -13.25 C 13.875 -13.582031 13.46875 -13.75 13 -13.75 L 4.390625 -13.75 L 4.390625 -17.1875 L 13 -17.1875 C 13.945312 -17.1875 14.8125 -16.953125 15.59375 -16.484375 C 16.382812 -16.023438 17.007812 -15.40625 17.46875 -14.625 C 17.9375 -13.84375 18.171875 -12.976562 18.171875 -12.03125 L 18.171875 0 Z M 0.984375 0 L 0.984375 -13.75 L 4.390625 -13.75 L 4.390625 -8.59375 L 13.015625 -8.59375 L 13.015625 -5.15625 L 4.390625 -5.15625 L 4.390625 0 Z M 0.984375 0 "/></g></g></g></g><g fill="#00ffff" fill-opacity="1"><g transform="translate(19.001155, 26.098438)"><g><path d="M 14.734375 -12.03125 C 14.734375 -12.507812 14.566406 -12.914062 14.234375 -13.25 C 13.898438 -13.582031 13.492188 -13.75 13.015625 -13.75 L 4.421875 -13.75 L 4.421875 -17.1875 L 13.015625 -17.1875 C 13.960938 -17.1875 14.828125 -16.953125 15.609375 -16.484375 C 16.390625 -16.023438 17.007812 -15.40625 17.46875 -14.625 C 17.9375 -13.84375 18.171875 -12.976562 18.171875 -12.03125 Z M 14.734375 -3.4375 L 14.734375 -5.15625 C 14.734375 -5.632812 14.566406 -6.039062 14.234375 -6.375 C 13.898438 -6.707031 13.492188 -6.875 13.015625 -6.875 L 6.140625 -6.875 C 5.203125 -6.875 4.335938 -7.109375 3.546875 -7.578125 C 2.765625 -8.046875 2.140625 -8.671875 1.671875 -9.453125 C 1.210938 -10.242188 0.984375 -11.101562 0.984375 -12.03125 L 0.984375 -13.75 L 4.421875 -13.75 L 4.421875 -12.03125 C 4.421875 -11.5625 4.59375 -11.15625 4.9375 -10.8125 C 5.28125 -10.476562 5.679688 -10.3125 6.140625 -10.3125 L 13.015625 -10.3125 C 13.960938 -10.3125 14.828125 -10.078125 15.609375 -9.609375 C 16.390625 -9.148438 17.007812 -8.53125 17.46875 -7.75 C 17.9375 -6.96875 18.171875 -6.101562 18.171875 -5.15625 L 18.171875 -3.4375 Z M 6.140625 0 C 5.203125 0 4.335938 -0.234375 3.546875 -0.703125 C 2.765625 -1.171875 2.140625 -1.796875 1.671875 -2.578125 C 1.210938 -3.367188 0.984375 -4.226562 0.984375 -5.15625 L 4.421875 -5.15625 C 4.421875 -4.6875 4.59375 -4.28125 4.9375 -3.9375 C 5.28125 -3.601562 5.679688 -3.4375 6.140625 -3.4375 L 14.734375 -3.4375 L 14.734375 0 Z M 6.140625 0 "/></g></g></g><g fill="#00ffff" fill-opacity="1"><g transform="translate(38.156078, 26.098438)"><g><path d="M 0.984375 -8.59375 L 0.984375 -17.1875 L 4.390625 -17.1875 L 4.390625 -8.59375 Z M 14.765625 0 L 14.765625 -17.1875 L 18.171875 -17.1875 L 18.171875 0 Z M 0.984375 0 L 0.984375 -3.4375 C 0.984375 -4.382812 1.210938 -5.25 1.671875 -6.03125 C 2.140625 -6.8125 2.765625 -7.429688 3.546875 -7.890625 C 4.328125 -8.359375 5.191406 -8.59375 6.140625 -8.59375 L 13.015625 -8.59375 L 13.015625 -5.15625 L 6.140625 -5.15625 C 5.660156 -5.15625 5.253906 -4.988281 4.921875 -4.65625 C 4.585938 -4.320312 4.421875 -3.914062 4.421875 -3.4375 L 4.421875 0 Z M 0.984375 0 "/></g></g></g><g fill="#00ffff" fill-opacity="1"><g transform="translate(57.311003, 26.098438)"><g><path d="M 7.890625 0 L 7.890625 -12.03125 C 7.890625 -12.507812 7.71875 -12.914062 7.375 -13.25 C 7.03125 -13.582031 6.617188 -13.75 6.140625 -13.75 L 0.984375 -13.75 L 0.984375 -17.1875 L 6.140625 -17.1875 C 7.085938 -17.1875 7.953125 -16.953125 8.734375 -16.484375 C 9.515625 -16.023438 10.132812 -15.40625 10.59375 -14.625 C 11.0625 -13.84375 11.296875 -12.976562 11.296875 -12.03125 L 11.296875 0 Z M 11.296875 -13.75 L 11.296875 -17.1875 L 18.171875 -17.1875 L 18.171875 -13.75 Z M 11.296875 -13.75 "/></g></g></g><g fill="#00ffff" fill-opacity="1"><g transform="translate(76.465924, 26.098438)"><g><path d="M 0.984375 -13.75 L 0.984375 -17.1875 L 16.703125 -17.1875 L 16.703125 -13.75 Z M 12.28125 0 C 11.34375 0 10.484375 -0.234375 9.703125 -0.703125 C 8.929688 -1.171875 8.3125 -1.796875 7.84375 -2.578125 C 7.375 -3.367188 7.140625 -4.226562 7.140625 -5.15625 L 7.140625 -12.03125 L 10.5625 -12.03125 L 10.5625 -5.15625 C 10.5625 -4.6875 10.734375 -4.28125 11.078125 -3.9375 C 11.421875 -3.601562 11.820312 -3.4375 12.28125 -3.4375 L 16.703125 -3.4375 L 16.703125 0 Z M 0.984375 0 L 0.984375 -3.4375 L 7.125 -3.4375 L 7.125 0 Z M 0.984375 0 "/></g></g></g><g fill="#00ffff" fill-opacity="1"><g transform="translate(94.147388, 26.098438)"><g><path d="M 0.984375 0 L 0.984375 -12.03125 C 0.984375 -12.976562 1.210938 -13.84375 1.671875 -14.625 C 2.140625 -15.40625 2.765625 -16.023438 3.546875 -16.484375 C 4.328125 -16.953125 5.191406 -17.1875 6.140625 -17.1875 L 18.171875 -17.1875 L 18.171875 -13.75 L 6.140625 -13.75 C 5.660156 -13.75 5.253906 -13.582031 4.921875 -13.25 C 4.585938 -12.914062 4.421875 -12.507812 4.421875 -12.03125 L 4.421875 0 Z M 6.140625 -6.140625 L 6.140625 -9.578125 L 16.453125 -9.578125 L 16.453125 -6.140625 Z M 6.140625 -6.140625 "/></g></g></g><g fill="#00ffff" fill-opacity="1"><g transform="translate(113.302309, 26.098438)"><g><path d="M 6.140625 -5.15625 C 5.191406 -5.15625 4.328125 -5.390625 3.546875 -5.859375 C 2.765625 -6.328125 2.140625 -6.945312 1.671875 -7.71875 C 1.210938 -8.5 0.984375 -9.363281 0.984375 -10.3125 L 0.984375 -17.1875 L 4.421875 -17.1875 L 4.421875 -10.3125 C 4.421875 -9.84375 4.585938 -9.4375 4.921875 -9.09375 C 5.253906 -8.757812 5.660156 -8.59375 6.140625 -8.59375 L 13.015625 -8.59375 L 13.015625 -5.15625 Z M 2.703125 0 L 2.703125 -3.4375 L 13.015625 -3.4375 C 13.492188 -3.4375 13.898438 -3.601562 14.234375 -3.9375 C 14.566406 -4.28125 14.734375 -4.6875 14.734375 -5.15625 L 14.734375 -17.1875 L 18.171875 -17.1875 L 18.171875 -5.15625 C 18.171875 -4.207031 17.9375 -3.34375 17.46875 -2.5625 C 17.007812 -1.789062 16.390625 -1.171875 15.609375 -0.703125 C 14.828125 -0.234375 13.960938 0 13.015625 0 Z M 2.703125 0 "/></g></g></g><g fill="#ff00ff" fill-opacity="1"><g transform="translate(134.968425, 24.873792)"><g/></g></g><g fill="#00ffff" fill-opacity="1"><g transform="translate(132.45753, 26.098438)"><g/></g></g><g fill="#1800ad" fill-opacity="1"><g transform="translate(1.101679, 25.486115)"><g><path d="M 14.734375 0 L 14.734375 -12.03125 C 14.734375 -12.507812 14.5625 -12.914062 14.21875 -13.25 C 13.875 -13.582031 13.46875 -13.75 13 -13.75 L 4.390625 -13.75 L 4.390625 -17.1875 L 13 -17.1875 C 13.945312 -17.1875 14.8125 -16.953125 15.59375 -16.484375 C 16.382812 -16.023438 17.007812 -15.40625 17.46875 -14.625 C 17.9375 -13.84375 18.171875 -12.976562 18.171875 -12.03125 L 18.171875 0 Z M 0.984375 0 L 0.984375 -13.75 L 4.390625 -13.75 L 4.390625 -8.59375 L 13.015625 -8.59375 L 13.015625 -5.15625 L 4.390625 -5.15625 L 4.390625 0 Z M 0.984375 0 "/></g></g></g><g fill="#1800ad" fill-opacity="1"><g transform="translate(20.256602, 25.486115)"><g><path d="M 14.734375 -12.03125 C 14.734375 -12.507812 14.566406 -12.914062 14.234375 -13.25 C 13.898438 -13.582031 13.492188 -13.75 13.015625 -13.75 L 4.421875 -13.75 L 4.421875 -17.1875 L 13.015625 -17.1875 C 13.960938 -17.1875 14.828125 -16.953125 15.609375 -16.484375 C 16.390625 -16.023438 17.007812 -15.40625 17.46875 -14.625 C 17.9375 -13.84375 18.171875 -12.976562 18.171875 -12.03125 Z M 14.734375 -3.4375 L 14.734375 -5.15625 C 14.734375 -5.632812 14.566406 -6.039062 14.234375 -6.375 C 13.898438 -6.707031 13.492188 -6.875 13.015625 -6.875 L 6.140625 -6.875 C 5.203125 -6.875 4.335938 -7.109375 3.546875 -7.578125 C 2.765625 -8.046875 2.140625 -8.671875 1.671875 -9.453125 C 1.210938 -10.242188 0.984375 -11.101562 0.984375 -12.03125 L 0.984375 -13.75 L 4.421875 -13.75 L 4.421875 -12.03125 C 4.421875 -11.5625 4.59375 -11.15625 4.9375 -10.8125 C 5.28125 -10.476562 5.679688 -10.3125 6.140625 -10.3125 L 13.015625 -10.3125 C 13.960938 -10.3125 14.828125 -10.078125 15.609375 -9.609375 C 16.390625 -9.148438 17.007812 -8.53125 17.46875 -7.75 C 17.9375 -6.96875 18.171875 -6.101562 18.171875 -5.15625 L 18.171875 -3.4375 Z M 6.140625 0 C 5.203125 0 4.335938 -0.234375 3.546875 -0.703125 C 2.765625 -1.171875 2.140625 -1.796875 1.671875 -2.578125 C 1.210938 -3.367188 0.984375 -4.226562 0.984375 -5.15625 L 4.421875 -5.15625 C 4.421875 -4.6875 4.59375 -4.28125 4.9375 -3.9375 C 5.28125 -3.601562 5.679688 -3.4375 6.140625 -3.4375 L 14.734375 -3.4375 L 14.734375 0 Z M 6.140625 0 "/></g></g></g><g fill="#1800ad" fill-opacity="1"><g transform="translate(39.411526, 25.486115)"><g><path d="M 0.984375 -8.59375 L 0.984375 -17.1875 L 4.390625 -17.1875 L 4.390625 -8.59375 Z M 14.765625 0 L 14.765625 -17.1875 L 18.171875 -17.1875 L 18.171875 0 Z M 0.984375 0 L 0.984375 -3.4375 C 0.984375 -4.382812 1.210938 -5.25 1.671875 -6.03125 C 2.140625 -6.8125 2.765625 -7.429688 3.546875 -7.890625 C 4.328125 -8.359375 5.191406 -8.59375 6.140625 -8.59375 L 13.015625 -8.59375 L 13.015625 -5.15625 L 6.140625 -5.15625 C 5.660156 -5.15625 5.253906 -4.988281 4.921875 -4.65625 C 4.585938 -4.320312 4.421875 -3.914062 4.421875 -3.4375 L 4.421875 0 Z M 0.984375 0 "/></g></g></g><g fill="#1800ad" fill-opacity="1"><g transform="translate(58.56645, 25.486115)"><g><path d="M 7.890625 0 L 7.890625 -12.03125 C 7.890625 -12.507812 7.71875 -12.914062 7.375 -13.25 C 7.03125 -13.582031 6.617188 -13.75 6.140625 -13.75 L 0.984375 -13.75 L 0.984375 -17.1875 L 6.140625 -17.1875 C 7.085938 -17.1875 7.953125 -16.953125 8.734375 -16.484375 C 9.515625 -16.023438 10.132812 -15.40625 10.59375 -14.625 C 11.0625 -13.84375 11.296875 -12.976562 11.296875 -12.03125 L 11.296875 0 Z M 11.296875 -13.75 L 11.296875 -17.1875 L 18.171875 -17.1875 L 18.171875 -13.75 Z M 11.296875 -13.75 "/></g></g></g><g fill="#1800ad" fill-opacity="1"><g transform="translate(77.721371, 25.486115)"><g><path d="M 0.984375 -13.75 L 0.984375 -17.1875 L 16.703125 -17.1875 L 16.703125 -13.75 Z M 12.28125 0 C 11.34375 0 10.484375 -0.234375 9.703125 -0.703125 C 8.929688 -1.171875 8.3125 -1.796875 7.84375 -2.578125 C 7.375 -3.367188 7.140625 -4.226562 7.140625 -5.15625 L 7.140625 -12.03125 L 10.5625 -12.03125 L 10.5625 -5.15625 C 10.5625 -4.6875 10.734375 -4.28125 11.078125 -3.9375 C 11.421875 -3.601562 11.820312 -3.4375 12.28125 -3.4375 L 16.703125 -3.4375 L 16.703125 0 Z M 0.984375 0 L 0.984375 -3.4375 L 7.125 -3.4375 L 7.125 0 Z M 0.984375 0 "/></g></g></g><g fill="#1800ad" fill-opacity="1"><g transform="translate(95.402836, 25.486115)"><g><path d="M 0.984375 0 L 0.984375 -12.03125 C 0.984375 -12.976562 1.210938 -13.84375 1.671875 -14.625 C 2.140625 -15.40625 2.765625 -16.023438 3.546875 -16.484375 C 4.328125 -16.953125 5.191406 -17.1875 6.140625 -17.1875 L 18.171875 -17.1875 L 18.171875 -13.75 L 6.140625 -13.75 C 5.660156 -13.75 5.253906 -13.582031 4.921875 -13.25 C 4.585938 -12.914062 4.421875 -12.507812 4.421875 -12.03125 L 4.421875 0 Z M 6.140625 -6.140625 L 6.140625 -9.578125 L 16.453125 -9.578125 L 16.453125 -6.140625 Z M 6.140625 -6.140625 "/></g></g></g><g fill="#1800ad" fill-opacity="1"><g transform="translate(114.557757, 25.486115)"><g><path d="M 6.140625 -5.15625 C 5.191406 -5.15625 4.328125 -5.390625 3.546875 -5.859375 C 2.765625 -6.328125 2.140625 -6.945312 1.671875 -7.71875 C 1.210938 -8.5 0.984375 -9.363281 0.984375 -10.3125 L 0.984375 -17.1875 L 4.421875 -17.1875 L 4.421875 -10.3125 C 4.421875 -9.84375 4.585938 -9.4375 4.921875 -9.09375 C 5.253906 -8.757812 5.660156 -8.59375 6.140625 -8.59375 L 13.015625 -8.59375 L 13.015625 -5.15625 Z M 2.703125 0 L 2.703125 -3.4375 L 13.015625 -3.4375 C 13.492188 -3.4375 13.898438 -3.601562 14.234375 -3.9375 C 14.566406 -4.28125 14.734375 -4.6875 14.734375 -5.15625 L 14.734375 -17.1875 L 18.171875 -17.1875 L 18.171875 -5.15625 C 18.171875 -4.207031 17.9375 -3.34375 17.46875 -2.5625 C 17.007812 -1.789062 16.390625 -1.171875 15.609375 -0.703125 C 14.828125 -0.234375 13.960938 0 13.015625 0 Z M 2.703125 0 "/></g></g></g><g fill="#1800ad" fill-opacity="1"><g transform="translate(133.712978, 25.486115)"><g/></g></g></g></g></svg>